# AST/ASF file generated using VICON BodyLanguage
# -----------------------------------------------
:version 1.10
:name VICON
:units
  mass 1.0
  length 0.45
  angle deg
:documentation
   .ast/.asf automatically generated from VICON data using
   VICON BodyBuilder and BodyLanguage model FoxedUp or BRILLIANT.MOD
:root
   order TX TY TZ RX RY RZ
   axis XYZ
   position 0 0 0  
   orientation 0 0 0 
:bonedata
  begin
     id 1 
     name lhipjoint
     direction 0.612567 -0.751349 0.245431 
     length 2.42285 
     axis 0 0 0  XYZ
  end
  begin
     id 2 
     name lfemur
     direction 0.34202 -0.939693 0  
     length 7.11304  
     axis 0 0 20  XYZ
    dof rx ry rz
    limits (-160.0 20.0)
           (-70.0 70.0)
           (-60.0 70.0)
  end
  begin
     id 3 
     name ltibia
     direction 0.34202 -0.939693 0   
     length 7.84529   
     axis 0 0 20   XYZ
    dof rx
    limits (-10.0 170.0)
  end
  begin
     id 4 
     name lfoot
     direction 0.0779239 -0.214094 0.9737   
     length 1.97176   
     axis -90 7.62852e-016 20   XYZ
    dof rx rz
    limits (-45.0 90.0)
           (-70.0 20.0)
  end
  begin
     id 5 
     name ltoes
     direction 1.53565e-011 -4.21709e-011 1   
     length 0.993197   
     axis -90 7.62852e-016 20   XYZ
    dof rx
    limits (-90.0 20.0)
  end
  begin
     id 6 
     name rhipjoint
     direction -0.665722 -0.709315 0.231701   
     length 2.56642  
     axis 0 0 0  XYZ 
  end
  begin
     id 7 
     name rfemur
     direction -0.34202 -0.939693 0   
     length 7.32108   
     axis 0 0 -20   XYZ
    dof rx ry rz
    limits (-160.0 20.0)
           (-70.0 70.0)
           (-70.0 60.0)
  end
  begin
     id 8 
     name rtibia
     direction -0.34202 -0.939693 0   
     length 7.81254   
     axis 0 0 -20   XYZ
    dof rx
    limits (-10.0 170.0)
 end
 begin
     id 9 
     name rfoot
     direction -0.0832806 -0.228812 0.969902   
     length 2.08278  
     axis -90 -7.62852e-016 -20   XYZ
    dof rx rz
    limits (-45.0 90.0)
           (-20.0 70.0)
  end
  begin
     id 10 
     name rtoes
     direction -1.53589e-011 -4.22086e-011 1   
     length 1.04609   
     axis -90 -7.62852e-016 -20   XYZ
    dof rx
    limits (-90.0 20.0)
  end
  begin
     id 11 
     name lowerback
     direction -0.00506013 0.988403 -0.151766   
     length 2.01978   
     axis 0 0 0   XYZ
    dof rx ry rz
    limits (-20.0 45.0)
           (-30.0 30.0)
           (-30.0 30.0)
  end
  begin
     id 12 
     name upperback
     direction -0.00836389 0.99968 0.0238859   
     length 2.01276   
     axis 0 0 0   XYZ
    dof rx ry rz
    limits (-20.0 45.0)
           (-30.0 30.0)
           (-30.0 30.0)
  end
  begin
     id 13 
     name thorax
     direction -0.00684136 0.995386 0.0957043   
     length 2.07303   
     axis 0 0 0   XYZ
    dof rx ry rz
    limits (-20.0 45.0)
           (-30.0 30.0)
           (-30.0 30.0)
  end
  begin
     id 14 
     name lowerneck
     direction -0.0161045 0.999661 0.0204485   
     length 1.91243   
     axis 0 0 0   XYZ
    dof rx ry rz
    limits (-20.0 45.0)
           (-30.0 30.0)
           (-30.0 30.0)
  end
  begin
     id 15 
     name upperneck
     direction 0.0553583 0.990946 -0.122319   
     length 1.91574   
     axis 0 0 0   XYZ
    dof rx ry rz
    limits (-20.0 45.0)
           (-30.0 30.0)
           (-30.0 30.0)
  end
  begin
     id 16
     name head
     direction 0.0180273 0.998839 -0.0446756  
     length 1.92693  
     axis 0 0 0   XYZ
    dof rx ry rz
    limits (-20.0 45.0)
           (-30.0 30.0)
           (-30.0 30.0)
  end
  begin
     id 17 
     name lclavicle
     direction 0.945646 0.319323 -0.0615358  
     length 4.0076  
     axis 0 0 0   XYZ
    dof ry rz
    limits (-20.0 10.0)
           (0.0 20.0)
  end
  begin
     id 18 
     name lhumerus
     direction 1 -4.48967e-011 -2.79996e-027   
     length 5.64147   
     axis 180 -30 -90   XYZ
    dof rx ry rz
    limits (-60.0 90.0)
           (-90.0 90.0)
           (-90.0 90.0)
  end
  begin
     id 19
     name lradius
     direction 1 -4.48976e-011 -9.5122e-027   
     length 2.86444   
     axis 180 -30 -90   XYZ
    dof rx
    limits (-10.0 170.0)
  end
  begin
     id 20
     name lwrist
     direction 1 -4.48983e-011 -1.24047e-026   
     length 1.43222   
     axis 9.05591e-015 90 90   XYZ
    dof ry
    limits (-180.0 0.0)
 end
  begin
     id 21 
     name lhand
     direction 1 -4.4892e-011 -2.48094e-026   
     length 0.722123   
     axis 1.58305e-014 90 90   XYZ
    dof rx rz
    limits (-90.0 90.0)
           (-45.0 45.0)
  end
  begin
     id 22 
     name lfingers
     direction 1 -4.48895e-011 -4.96187e-026   
     length 0.582194   
     axis 3.1661e-014 90 90   XYZ
    dof rx
    limits (0.0 90.0)
  end
  begin
     id 23
     name lthumb
     direction 0.707107 -6.34961e-011 0.707107   
     length 0.835918   
     axis -90 45 2.85299e-015   XYZ
    dof rx rz
    limits (-45.0 45.0)
           (-45.0 45.0)
  end
  begin
     id 24 
     name rclavicle
     direction -0.932635 0.324218 -0.15835   
     length 3.65819  
     axis 0 0 0   XYZ 
    dof ry rz
    limits (-10.0 20.0)
           (-20.0 0.0)
  end
  begin
     id 25 
     name rhumerus
     direction -1 -4.48965e-011 -4.02296e-027  
     length 5.44729   
     axis 180 30 90   XYZ
    dof rx ry rz
    limits (-90.0 60.0)
           (-90.0 90.0)
           (-90.0 90.0)
  end
  begin
     id 26 
     name rradius
     direction -1 -4.48957e-011 -8.81087e-027   
     length 3.08821   
     axis 180 30 90   XYZ
    dof rx
    limits (-10.0 170.0)
  end
  begin
     id 27 
     name rwrist
     direction -1 -4.49015e-011 -1.24047e-026   
     length 1.5441   
     axis 9.05591e-015 -90 -90   XYZ
    dof ry
    limits (-180.0 0.0)
  end
  begin
     id 28
     name rhand
     direction -1 -4.4891e-011 -2.48094e-026   
     length 0.821049   
     axis 1.58305e-014 -90 -90   XYZ
    dof rx rz
    limits (-90.0 90.0)
           (-45.0 45.0)
  end
  begin
     id 29
     name rfingers
     direction -1 -4.48985e-011 -4.96187e-026   
     length 0.661951   
     axis 3.1661e-014 -90 -90   XYZ
    dof rx
    limits (0.0 90.0)
  end
  begin
     id 30
     name rthumb
     direction -0.707107 -6.34906e-011 0.707107   
     length 0.950433   
     axis -90 -45 -2.85299e-015   XYZ
    dof rx rz
    limits (-45.0 45.0)
           (-45.0 45.0)
  end
:hierarchy
  begin
    root lhipjoint rhipjoint lowerback
    lhipjoint lfemur
    lfemur ltibia
    ltibia lfoot
    lfoot ltoes
    rhipjoint rfemur
    rfemur rtibia
    rtibia rfoot
    rfoot rtoes
    lowerback upperback
    upperback thorax
    thorax lowerneck lclavicle rclavicle
    lowerneck upperneck
    upperneck head
    lclavicle lhumerus
    lhumerus lradius
    lradius lwrist
    lwrist lhand lthumb
    lhand lfingers
    rclavicle rhumerus
    rhumerus rradius
    rradius rwrist
    rwrist rhand rthumb
    rhand rfingers
  end

#!OML:ASF F:\VICON\USERDATA\INSTALL\rory3\rory3.ASF
:FULLY-SPECIFIED
:DEGREES
330
root 3.4242 17.6431 0.400332 -191.545 80.6371 -188.66
lowerback 4.35562 1.56922 6.64109
upperback -2.53081 2.77812 3.23146
thorax -4.94036 1.2521 -0.594845
lowerneck -6.54344 -8.20678 -4.55221
upperneck 14.7589 -11.2241 5.3937
head 6.11212 -5.22462 1.59525
rclavicle -5.1684e-015 -2.06736e-014
rhumerus 17.6385 -19.7192 -74.0319
rradius 96.7021
rwrist -57.7972
rhand -1.47893 20.2011
rfingers 7.12502
rthumb 24.1731 -8.29562
lclavicle -5.1684e-015 -2.06736e-014
lhumerus -30.5176 7.20596 80.7943
lradius 33.1339
lwrist 43.4759
lhand -7.94217 7.86536
lfingers 7.12502
lthumb 17.9645 37.0557
rfemur 4.40212 -1.87167 18.4697
rtibia 16.37
rfoot -23.722 -10.7046
rtoes -3.87768
lfemur 2.29292 -1.64235 -16.8492
ltibia 8.5865
lfoot -6.89529 -7.0612
ltoes 0.116691
331
root 3.4242 17.6462 0.396635 -191.406 80.7476 -188.516
lowerback 4.40648 1.57315 6.69292
upperback -2.53656 2.79119 3.21909
thorax -4.97201 1.25543 -0.639116
lowerneck -6.53659 -8.1673 -4.55407
upperneck 14.7328 -11.169 5.38844
head 6.09958 -5.19974 1.59941
rclavicle 1.59028e-015 0
rhumerus 17.4473 -19.6169 -73.9038
rradius 96.7054
rwrist -57.719
rhand -1.47542 20.033
rfingers 7.12502
rthumb 24.1764 -8.46332
lclavicle 1.59028e-015 0
lhumerus -30.5119 7.06522 80.7162
lradius 33.0091
lwrist 43.4694
lhand -8.78992 9.03133
lfingers 7.12502
lthumb 17.1487 38.2946
rfemur 4.38952 -1.71517 18.5035
rtibia 16.3623
rfoot -23.7877 -10.6534
rtoes -3.1038
lfemur 2.30943 -1.53372 -16.8248
ltibia 8.60851
lfoot -6.91335 -7.07444
ltoes -0.234329
332
root 3.42496 17.6471 0.392854 -191.715 80.8205 -188.847
lowerback 4.43165 1.56339 6.63269
upperback -2.54608 2.77476 3.19446
thorax -4.99834 1.24739 -0.631042
lowerneck -6.59762 -8.12367 -4.53519
upperneck 14.7742 -11.1083 5.35976
head 6.11717 -5.16975 1.58966
rclavicle -7.95139e-015 2.8625e-014
rhumerus 17.2192 -19.4612 -73.7609
rradius 96.6917
rwrist -57.6945
rhand -1.45038 19.8326
rfingers 7.12502
rthumb 24.2005 -8.66045
lclavicle -7.95139e-015 2.8625e-014
lhumerus -30.5349 7.0328 80.5887
lradius 32.8472
lwrist 43.4359
lhand -8.72607 8.98486
lfingers 7.12502
lthumb 17.2101 38.2427
rfemur 4.38292 -1.69619 18.4376
rtibia 16.3232
rfoot -23.7597 -10.5746
rtoes -2.941
lfemur 2.25801 -1.44564 -16.8787
ltibia 8.70362
lfoot -6.96513 -7.08789
ltoes -0.399126
333
root 3.42568 17.6406 0.389552 -191.839 80.9132 -188.948
lowerback 4.47681 1.57245 6.59811
upperback -2.52788 2.7862 3.18665
thorax -5.00517 1.2537 -0.622222
lowerneck -6.66858 -8.09906 -4.54857
upperneck 14.8107 -11.0705 5.33721
head 6.13836 -5.15223 1.5844
rclavicle 5.96354e-015 6.36111e-015
rhumerus 16.965 -19.3201 -73.5973
rradius 96.676
rwrist -57.6429
rhand -1.39391 19.8251
rfingers 7.12502
rthumb 24.2546 -8.66079
lclavicle 5.96354e-015 6.36111e-015
lhumerus -30.5237 7.14013 80.4339
lradius 32.6286
lwrist 43.1312
lhand -7.97976 7.99724
lfingers 7.12502
lthumb 17.9283 37.1909
rfemur 4.42998 -1.8728 18.4124
rtibia 16.2786
rfoot -23.5383 -10.5788
rtoes -4.09736
lfemur 2.27201 -1.34857 -16.8768
ltibia 8.77921
lfoot -6.96705 -7.12334
ltoes -0.0998193
334
root 3.42791 17.6395 0.387398 -191.466 81.0045 -188.516
lowerback 4.53985 1.58949 6.64314
upperback -2.49676 2.81574 3.19071
thorax -5.00509 1.26718 -0.647011
lowerneck -6.70587 -8.09693 -4.47978
upperneck 14.8013 -11.0615 5.24365
head 6.13197 -5.15126 1.54417
rclavicle 4.41302e-014 -9.54166e-015
rhumerus 16.664 -19.1752 -73.3125
rradius 96.6225
rwrist -57.5476
rhand -1.44792 19.8627
rfingers 7.12502
rthumb 24.2028 -8.63009
lclavicle 4.41302e-014 -9.54166e-015
lhumerus -30.4867 7.07835 80.3331
lradius 32.419
lwrist 42.9301
lhand -8.21703 8.12239
lfingers 7.12502
lthumb 17.7 37.3368
rfemur 4.51934 -1.90156 18.4788
rtibia 16.2078
rfoot -23.4954 -10.5005
rtoes -3.55333
lfemur 2.25935 -1.27183 -16.7805
ltibia 8.97108
lfoot -7.06071 -7.18823
ltoes 0.116612
335
root 3.43081 17.6415 0.38472 -191.085 81.1046 -188.12
lowerback 4.56822 1.5992 6.64611
upperback -2.50244 2.83307 3.20355
thorax -5.02688 1.27534 -0.637774
lowerneck -6.67038 -8.09815 -4.38697
upperneck 14.789 -11.0588 5.13838
head 6.11048 -5.15378 1.49932
rclavicle 1.70955e-014 1.74931e-014
rhumerus 16.2481 -18.9311 -72.9439
rradius 96.547
rwrist -57.3599
rhand -1.3826 19.9282
rfingers 7.12502
rthumb 24.2654 -8.55624
lclavicle 1.70955e-014 1.74931e-014
lhumerus -30.5028 6.84145 80.255
lradius 32.1517
lwrist 42.9465
lhand -8.76901 8.55743
lfingers 7.12502
lthumb 17.1688 37.8189
rfemur 4.56466 -1.82186 18.5426
rtibia 16.1219
rfoot -23.4605 -10.4636
rtoes -2.81391
lfemur 2.1858 -1.1817 -16.7033
ltibia 9.20387
lfoot -7.1624 -7.27611
ltoes 0.15281
